<?xml version="1.0" standalone="no"?>
<!DOCTYPE svg PUBLIC "-//W3C//DTD SVG 20010904//EN"
 "http://www.w3.org/TR/2001/REC-SVG-20010904/DTD/svg10.dtd">
<svg version="1.0" xmlns="http://www.w3.org/2000/svg"
 width="369.000000pt" height="369.000000pt" viewBox="0 0 369.000000 369.000000"
 preserveAspectRatio="xMidYMid meet">
<metadata>
Created by potrace 1.16, written by Peter Selinger 2001-2019
</metadata>
<g transform="translate(0.000000,369.000000) scale(0.100000,-0.100000)"
fill="#000000" stroke="none">
<path d="M250 3660 c0 -19 -5 -30 -14 -30 -53 0 -176 -122 -176 -175 0 -10
-10 -15 -30 -15 l-30 0 0 -1595 0 -1595 28 0 c23 0 30 -6 41 -36 22 -62 121
-154 166 -154 10 0 15 -10 15 -30 l0 -30 1595 0 1595 0 0 30 c0 20 5 30 15 30
45 0 144 92 166 154 11 30 18 36 41 36 l28 0 0 1595 0 1595 -28 0 c-23 0 -30
6 -41 36 -22 62 -121 154 -166 154 -10 0 -15 10 -15 30 l0 30 -1595 0 -1595 0
0 -30z m2680 -1065 c0 -104 -18 -170 -68 -243 -41 -61 -134 -129 -209 -152
-63 -19 -93 -20 -780 -20 l-716 0 6 108 c8 166 56 262 171 341 88 61 72 60
869 60 l727 1 0 -95z m-402 -752 l2 -253 -685 0 -685 0 0 248 c0 137 3 252 7
255 3 4 311 6 682 5 l676 -3 3 -252z m0 -441 c-4 -95 -8 -116 -35 -175 -40
-84 -106 -150 -191 -190 l-67 -32 -739 -3 -738 -3 4 108 c4 88 9 118 30 163
49 107 164 203 274 229 22 5 360 9 753 10 l714 1 -5 -108z"/>
</g>
</svg>
